<?xml version="1.0" encoding="utf-8"?>
<!-- Generator: Adobe Illustrator 25.4.1, SVG Export Plug-In . SVG Version: 6.00 Build 0)  -->
<svg version="1.1" xmlns="http://www.w3.org/2000/svg" xmlns:xlink="http://www.w3.org/1999/xlink" x="0px" y="0px"
	 viewBox="0 0 240.94 156.06" style="enable-background:new 0 0 240.94 156.06;" xml:space="preserve">
<style type="text/css">
	.st0{fill:#1E334F;}
	.st1{fill:#37475E;}
	.st2{fill:#637082;}
	.st3{fill:#9099A5;}
	.st4{fill:#BBC1C9;}
</style>
<g id="Layer_1">
</g>
<g id="Layer_2">
	<g>
		<path class="st0" d="M56.4,69.83v11.1H24.29v13.55h30.6v11.02h-30.6v16.35H56.4v11.72H11.35V69.83H56.4z"/>
		<path class="st0" d="M96.68,133.57l0.19-4.6c-1.11,1.11-2.17,2.08-3.19,2.93c-1.02,0.85-2.03,1.68-3.19,2.1
			c-1.22,0.44-2.03,0.6-3.32,0.69c-1.31,0.09-3.19,0.02-4.82,0.02c-5.31,0-9.21-1.44-11.72-4.33c-2.51-2.89-3.76-6.83-3.76-11.85
			V88.42h12.5v26.52c0,1.22,0.12,2.4,0.35,3.54c0.23,1.14,0.64,2.14,1.22,3.02c0.58,0.87,1.34,1.56,2.27,2.05
			c0.93,0.5,2.1,0.74,3.5,0.74c2.8,0,5.11-0.93,6.95-2.8c1.84-1.87,2.75-4.23,2.75-7.08v-26h12.5v45.15H96.68z"/>
		<path class="st0" d="M132.18,88.42v6.24c1.81-3.32,3.33-3.94,5.81-5.42c2.48-1.49,9.58-1.93,13.25-1.93v11.23
			c-1.92,0-7.17,0.1-8.92,0.31c-1.75,0.21-3.29,0.19-4.63,0.89c-1.34,0.7-2.42,1.75-3.23,3.15c-0.82,1.4-1.22,3.32-1.22,5.77v24.92
			h-12.59V88.42H132.18z"/>
		<path class="st0" d="M206.6,128.4v5.16h-11.03l-4.28-13.12h-24.74l-4.28,13.12h-11.02v-3.16v-7.06l21.01-53.87h13.08l21.27,53.44
			V128.4z M187.79,108.96l-9.01-24.5l-8.83,24.5H187.79z"/>
		<path class="st0" d="M227.49,88.3v45.26h-13.12V88.3H227.49z"/>
	</g>
	<polygon class="st0" points="227.6,75.03 220.45,72.66 214.44,77.21 214.48,69.67 208.3,65.37 215.48,63.08 217.66,55.87 
		222.06,61.99 229.59,61.83 225.13,67.91 	"/>
	<polygon class="st1" points="196.37,53.44 192.22,47.15 184.69,47 189.39,41.11 187.2,33.9 194.25,36.55 200.43,32.24 
		200.09,39.76 206.1,44.31 198.84,46.32 	"/>
	<polygon class="st2" points="167.46,41.8 160.76,38.36 154.12,41.93 155.32,34.49 149.88,29.29 157.32,28.13 160.59,21.34 
		163.99,28.06 171.46,29.07 166.12,34.39 	"/>
	<polygon class="st3" points="137.42,46.71 129.89,47.01 125.87,53.39 123.25,46.32 115.95,44.47 121.86,39.8 121.36,32.28 
		127.63,36.46 134.63,33.66 132.59,40.92 	"/>
	<polygon class="st4" points="107.15,77 101.1,72.51 93.97,74.95 96.37,67.8 91.85,61.78 99.38,61.85 103.72,55.69 105.97,62.88 
		113.18,65.1 107.03,69.46 	"/>
</g>
</svg>
