<?xml version="1.0" encoding="UTF-8"?>
<svg id="Layer_2" xmlns="http://www.w3.org/2000/svg" viewBox="0 0 188.5 46.84">
  <defs>
    <style>
      .cls-1 {
        fill: #df367c;
      }

      .cls-2 {
        fill: #3b5c7f;
      }

      .cls-3 {
        fill: #220f60;
      }

      .cls-4 {
        fill: #001fff;
        fill-rule: evenodd;
      }
    </style>
  </defs>
  <g id="Layer_1-2" data-name="Layer_1">
    <g>
      <g>
        <path class="cls-2" d="M56.37,30.82h1.04l2.01,5.11h-.97l-.41-1.09h-2.32l-.41,1.09h-.95l2.01-5.11ZM57.73,34.02l-.85-2.24-.85,2.24h1.7Z"/>
        <path class="cls-2" d="M61.44,30.82h.88v5.11h-.88v-5.11Z"/>
        <path class="cls-2" d="M68.86,31.65h-1.46v-.83h3.79v.83h-1.45v4.28h-.88v-4.28Z"/>
        <path class="cls-2" d="M73.3,30.82h.88v2.12h2.5v-2.12h.87v5.11h-.87v-2.15h-2.5v2.15h-.88v-5.11Z"/>
        <path class="cls-2" d="M80.14,30.82h2.23c.95,0,1.67.7,1.67,1.62,0,.76-.5,1.35-1.21,1.53l1.37,1.95h-1.1l-1.29-1.9h-.79v1.9h-.88v-5.11ZM81.02,31.65v1.61h1.33c.45,0,.79-.35.79-.81s-.34-.8-.79-.8h-1.33Z"/>
        <path class="cls-2" d="M86.35,30.82h.88v5.11h-.88v-5.11Z"/>
        <path class="cls-2" d="M89.26,30.82h.98l1.55,3.94,1.54-3.94h.96l-2.06,5.11h-.91l-2.06-5.11Z"/>
        <path class="cls-2" d="M96.34,30.82h3.32v.83h-2.44v1.29h2.2v.83h-2.2v1.32h2.48v.83h-3.36v-5.11Z"/>
        <path class="cls-2" d="M101.71,34.44h.9c0,.44.43.78.98.78.52,0,.93-.28.93-.69,0-1.01-2.73-.55-2.73-2.29,0-.92.78-1.51,1.77-1.51s1.78.64,1.78,1.5h-.9c0-.41-.39-.71-.9-.71-.46,0-.85.25-.85.65,0,1.01,2.74.49,2.74,2.26,0,.95-.82,1.58-1.85,1.58s-1.88-.68-1.88-1.57Z"/>
        <path class="cls-2" d="M110.34,33.37c0-1.5,1.16-2.64,2.69-2.64s2.69,1.14,2.69,2.64-1.15,2.64-2.69,2.64-2.69-1.14-2.69-2.64ZM114.81,33.37c0-1.02-.77-1.79-1.78-1.79s-1.78.77-1.78,1.79.77,1.79,1.78,1.79,1.78-.77,1.78-1.79Z"/>
        <path class="cls-2" d="M118.02,30.82h.9l2.55,3.61v-3.61h.88v5.11h-.9l-2.55-3.61v3.61h-.88v-5.11Z"/>
        <path class="cls-2" d="M127.36,30.82h.98l1.24,3.92,1.24-3.92h.81l1.26,3.92,1.23-3.92h.95l-1.74,5.11h-.9l-1.21-3.77-1.21,3.77h-.89l-1.75-5.11Z"/>
        <path class="cls-2" d="M137.13,30.82h.88v2.12h2.5v-2.12h.87v5.11h-.87v-2.15h-2.5v2.15h-.88v-5.11Z"/>
        <path class="cls-2" d="M143.69,33.37c0-1.5,1.16-2.64,2.69-2.64s2.69,1.14,2.69,2.64-1.15,2.64-2.69,2.64-2.69-1.14-2.69-2.64ZM148.16,33.37c0-1.02-.77-1.79-1.78-1.79s-1.78.77-1.78,1.79.77,1.79,1.78,1.79,1.78-.77,1.78-1.79Z"/>
        <path class="cls-2" d="M151.37,30.82h.88v4.28h2.26v.83h-3.14v-5.11Z"/>
        <path class="cls-2" d="M156.6,30.82h3.32v.83h-2.44v1.29h2.2v.83h-2.2v1.32h2.48v.83h-3.36v-5.11Z"/>
        <path class="cls-2" d="M165.14,30.82h1.98c1.49,0,2.6,1.1,2.6,2.55s-1.11,2.55-2.6,2.55h-1.98v-5.11ZM166.02,31.65v3.45h1.09c.98,0,1.71-.74,1.71-1.72s-.73-1.72-1.71-1.72h-1.09Z"/>
        <path class="cls-2" d="M173.29,30.82h1.04l2.01,5.11h-.97l-.41-1.09h-2.32l-.41,1.09h-.95l2.01-5.11ZM174.65,34.02l-.85-2.24-.85,2.24h1.7Z"/>
        <path class="cls-2" d="M178.96,31.65h-1.46v-.83h3.79v.83h-1.45v4.28h-.88v-4.28Z"/>
        <path class="cls-2" d="M184.45,30.82h1.04l2.01,5.11h-.97l-.41-1.09h-2.32l-.41,1.09h-.95l2.01-5.11ZM185.81,34.02l-.85-2.24-.85,2.24h1.7Z"/>
      </g>
      <g>
        <path class="cls-3" d="M52.77,14.92c0-4.66,3.6-8.19,8.37-8.19,3.78,0,6.93,2.22,7.77,5.34h-3.97c-.78-1.17-2.16-1.93-3.81-1.93-2.68,0-4.72,2.04-4.72,4.77s2.04,4.77,4.72,4.77c2,0,3.65-1.08,4.27-2.71h-3.78v-3.21h7.66v1.21c0,4.63-3.42,8.12-8.14,8.12s-8.37-3.53-8.37-8.19Z"/>
        <path class="cls-3" d="M71.59,7.01h7.13c3.14,0,5.5,2.27,5.5,5.3,0,2.22-1.31,3.99-3.28,4.75l3.76,5.78h-4.4l-3.33-5.41h-1.83v5.41h-3.55V7.01ZM75.14,10.35v3.97h3.51c1.1,0,1.93-.85,1.93-1.97s-.83-2-1.93-2h-3.51Z"/>
        <path class="cls-3" d="M91.42,7.01h4.2l5.96,15.82h-3.9l-.96-2.78h-6.44l-.99,2.78h-3.81l5.94-15.82ZM95.55,16.78l-2.06-5.85-2.06,5.85h4.13Z"/>
        <path class="cls-3" d="M102.96,7.01h7.32c3.17,0,5.55,2.32,5.55,5.39s-2.38,5.39-5.55,5.39h-3.76v5.05h-3.55V7.01ZM106.52,10.35v4.08h3.69c1.12,0,1.97-.89,1.97-2.04s-.85-2.04-1.97-2.04h-3.69Z"/>
        <path class="cls-3" d="M117.57,7.01h3.55v6.19h6.35v-6.19h3.55v15.82h-3.55v-6.28h-6.35v6.28h-3.55V7.01Z"/>
        <path class="cls-3" d="M132.75,7.01h1.58l4.7,13.99,4.79-13.99h1.35l4.82,13.99,4.7-13.99h1.51l-5.48,15.82h-1.47l-4.77-13.78-4.75,13.78h-1.49l-5.5-15.82Z"/>
        <path class="cls-3" d="M158.65,7.01h1.4v15.82h-1.4V7.01Z"/>
        <path class="cls-3" d="M163.18,18.5h1.44c0,1.88,1.77,3.33,4.06,3.33s3.92-1.24,3.92-3.1c0-4.24-9.13-2.25-9.13-7.66,0-2.66,2.32-4.33,5.11-4.33,2.96,0,5.18,1.9,5.18,4.43h-1.45c0-1.79-1.63-3.14-3.76-3.14-1.97,0-3.62,1.15-3.62,2.94,0,4.2,9.13,2.16,9.13,7.61,0,2.78-2.41,4.54-5.39,4.54-3.14,0-5.5-2-5.5-4.61Z"/>
        <path class="cls-3" d="M177.29,7.01h9.95v1.33h-8.55v5.87h7.8v1.33h-7.8v5.96h8.67v1.33h-10.07V7.01Z"/>
      </g>
      <g>
        <path class="cls-4" d="M28.31,14.99c-1.87,0-3.39-1.52-3.39-3.39s1.52-3.39,3.39-3.39,3.39,1.52,3.39,3.39-1.52,3.39-3.39,3.39Z"/>
        <path class="cls-4" d="M28.31,31.32c-1.87,0-3.39-1.52-3.39-3.39s1.52-3.39,3.39-3.39,3.39,1.52,3.39,3.39-1.52,3.39-3.39,3.39Z"/>
        <path class="cls-4" d="M19.99,39.64c-1.87,0-3.39-1.52-3.39-3.39s1.52-3.39,3.39-3.39,3.39,1.52,3.39,3.39-1.52,3.39-3.39,3.39Z"/>
        <path class="cls-4" d="M3.39,23.04c-1.87,0-3.39-1.52-3.39-3.39s1.52-3.39,3.39-3.39,3.39,1.52,3.39,3.39-1.52,3.39-3.39,3.39Z"/>
        <path class="cls-4" d="M36.36,23.27c-1.87,0-3.39-1.52-3.39-3.39s1.52-3.39,3.39-3.39,3.39,1.52,3.39,3.39-1.52,3.39-3.39,3.39Z"/>
        <path class="cls-4" d="M19.88,6.78c-1.87,0-3.39-1.52-3.39-3.39s1.52-3.39,3.39-3.39,3.39,1.52,3.39,3.39-1.52,3.39-3.39,3.39Z"/>
        <path class="cls-4" d="M26.43,19.76c0-1.04.84-1.87,1.87-1.87s1.87.84,1.87,1.87c0,1.03-.84,1.87-1.87,1.87s-1.87-.84-1.87-1.87Z"/>
        <path class="cls-4" d="M9.42,19.76c0,1.04.84,1.87,1.87,1.87s1.87-.84,1.87-1.87c0-1.04-.84-1.87-1.87-1.87s-1.87.84-1.87,1.87Z"/>
        <path class="cls-4" d="M19.8,13.47c1.03,0,1.87-.84,1.87-1.87s-.84-1.87-1.87-1.87c-1.03,0-1.87.84-1.87,1.87s.84,1.87,1.87,1.87Z"/>
        <path class="cls-4" d="M19.8,29.8c1.03,0,1.87-.84,1.87-1.87s-.84-1.87-1.87-1.87-1.87.84-1.87,1.87.84,1.87,1.87,1.87Z"/>
        <path class="cls-1" d="M19.8,16.26c-.72,0-1.39.23-1.94.61l-3.7-3.5c.32-.52.51-1.12.51-1.78,0-1.87-1.52-3.39-3.39-3.39s-3.39,1.52-3.39,3.39,1.52,3.39,3.39,3.39c.72,0,1.39-.23,1.94-.61l3.69,3.49c-.32.52-.52,1.13-.52,1.78s.18,1.21.48,1.71l-3.74,3.74c-.53-.35-1.17-.56-1.86-.56-1.87,0-3.39,1.52-3.39,3.39s1.52,3.39,3.39,3.39,3.39-1.52,3.39-3.39c0-.69-.21-1.33-.56-1.86l3.69-3.69c.56.41,1.24.66,1.99.66,1.87,0,3.39-1.52,3.39-3.39s-1.52-3.39-3.39-3.39Z"/>
      </g>
    </g>
  </g>
</svg>