<?xml version="1.0" encoding="UTF-8" standalone="no"?><svg width="134px" height="80px" viewBox="0 0 134 80" version="1.1" xmlns="http://www.w3.org/2000/svg" xmlns:xlink="http://www.w3.org/1999/xlink" xmlns:sketch="http://www.bohemiancoding.com/sketch/ns">        <title>sitelogo-sm</title>    <desc>Created with Sketch.</desc>    <defs></defs>    <g id="Page-1" stroke="none" stroke-width="1" fill="none" fill-rule="evenodd" sketch:type="MSPage">        <g id="sitelogo-sm" sketch:type="MSLayerGroup" fill="#1A1918">            <path d="M119.373156,0.216633333 L118.7977,2.30256667 L123.95,2.30256667 C123.95,2.30256667 114.264033,30.7544889 110.777056,40.8312889 C106.379622,53.5367222 98.9411333,55.8802333 93.3354667,55.8802333 C86.8223222,55.8802333 83.1410444,52.6158444 83.1410444,47.0153889 C83.1410444,43.2700889 84.6105778,39.1146 85.5694222,36.2149889 C89.8135,23.3941667 97.2132778,2.30256667 97.2132778,2.30256667 L101.789378,2.30256667 L102.387911,0.216633333 L77.3879778,0.216633333 L76.8013556,2.30256667 L81.9648222,2.30256667 L71.0937,33.0458889 C69.5125,37.5386111 69.0546667,39.8009778 69.1186889,42.7251556 L56.0224222,2.30256667 L61.1858889,2.30256667 L60.6104333,0.216633333 L35.5070222,0.216633333 L36.1055556,2.30256667 L40.6742111,2.30256667 L45.6523111,17.4602 L37.0859889,42.5546778 L20.9002778,2.30256667 L26.0749111,2.30256667 L25.4994556,0.216633333 L0,0.216633333 L0.574711111,2.30256667 L5.13145556,2.30256667 L28.1772222,58.6733889 L35.9723,58.6733889 L47.8461889,24.1415889 L59.1870556,58.6733889 L66.9821333,58.6733889 L70.4430556,49.5546889 C73.2838556,56.5063111 80.5094333,60.1466444 90.5586889,60.1466444 C107.438967,60.1466444 111.806622,50.6549778 115.898089,38.8704222 C119.510878,28.4638333 128.319144,2.30256667 128.319144,2.30256667 L132.884822,2.30256667 L133.471444,0.216633333 L119.373156,0.216633333 L119.373156,0.216633333 Z M66.5600333,78.1115778 L66.5354667,78.1115778 L61.4382556,70.8026222 L60.1198444,70.8026222 L60.1198444,79.6034444 L61.1643,79.6034444 L61.1643,72.2944889 L61.1896111,72.2944889 L66.2868222,79.6034444 L67.6044889,79.6034444 L67.6044889,70.8026222 L66.5600333,70.8026222 L66.5600333,78.1115778 L66.5600333,78.1115778 Z M82.0623444,76.4715667 L83.8899556,72.1448556 L83.9152667,72.1448556 L85.6557778,76.4715667 L82.0623444,76.4715667 L82.0623444,76.4715667 Z M83.4432889,70.8026222 L79.5639889,79.6034444 L80.7454222,79.6034444 L81.6529,77.4415778 L86.0540556,77.4415778 L86.9488778,79.6034444 L88.1675333,79.6034444 L84.4252111,70.8026222 L83.4432889,70.8026222 L83.4432889,70.8026222 Z M76.9152556,78.1115778 L76.8914333,78.1115778 L71.7934778,70.8026222 L70.4758111,70.8026222 L70.4758111,79.6034444 L71.5202667,79.6034444 L71.5202667,72.2944889 L71.5448333,72.2944889 L76.6427889,79.6034444 L77.9604556,79.6034444 L77.9604556,70.8026222 L76.9152556,70.8026222 L76.9152556,78.1115778 L76.9152556,78.1115778 Z M42.7028222,78.0378778 L42.6782556,78.0378778 L39.9677333,70.8026222 L38.7870444,70.8026222 L42.1556556,79.6034444 L43.1628889,79.6034444 L46.6066889,70.8026222 L45.5004444,70.8026222 L42.7028222,78.0378778 L42.7028222,78.0378778 Z M48.3970778,79.6034444 L49.4407889,79.6034444 L49.4407889,70.8026222 L48.3970778,70.8026222 L48.3970778,79.6034444 Z M53.1086667,75.5023 L57.2984,75.5023 L57.2984,74.5322889 L53.1086667,74.5322889 L53.1086667,71.7726333 L57.5969222,71.7726333 L57.5969222,70.8026222 L52.0642111,70.8026222 L52.0642111,79.6034444 L57.8202556,79.6034444 L57.8202556,78.6356667 L53.1086667,78.6356667 L53.1086667,75.5023 L53.1086667,75.5023 Z" id="Fill-1" sketch:type="MSShapeGroup"></path>        </g>    </g></svg>